<?xml version="1.0" standalone="no"?>
<svg xmlns="http://www.w3.org/2000/svg" xmlns:xlink="http://www.w3.org/1999/xlink" width="197pt" height="188pt" viewBox="0.00 0.00 197 188.00">
<g id="graph0" class="graph" transform="translate(13.520387226361464,168.58117085214263) scale(0.8705505632961241)" data-name="">
<polygon fill="white" stroke="none" points="-4,4 -4,-184 193,-184 193,4 -4,4"/>
<!-- div -->
<g id="node1" class="node" pointer-events="visible" data-name="div">

<polygon fill="none" stroke="black" points="144,-180 90,-180 90,-144 144,-144 144,-180"/>
<text text-anchor="middle" x="117" y="-156" font-family="Times,serif" font-weight="bold" font-size="20.00">/</text>
</g>
<!-- mul -->
<g id="node2" class="node" pointer-events="visible" data-name="mul">

<polygon fill="none" stroke="black" points="99,-108 45,-108 45,-72 99,-72 99,-108"/>
<text text-anchor="middle" x="72" y="-84" font-family="Times,serif" font-weight="bold" font-size="20.00">*</text>
</g>
<!-- div&#45;&gt;mul -->
<g id="edge1" class="edge" data-name="div-&gt;mul">

<path fill="none" stroke="black" d="M105.88,-143.7C100.81,-135.81 94.7,-126.3 89.07,-117.55"/>
<polygon fill="black" stroke="black" points="92.17,-115.9 83.81,-109.38 86.28,-119.68 92.17,-115.9"/>
</g>
<!-- two1 -->
<g id="node4" class="node" pointer-events="visible" data-name="two1">

<polygon fill="none" stroke="black" points="189,-108 135,-108 135,-72 189,-72 189,-108"/>
<text text-anchor="middle" x="162" y="-84" font-family="Times,serif" font-weight="bold" font-size="20.00">2</text>
</g>
<!-- div&#45;&gt;two1 -->
<g id="edge2" class="edge" data-name="div-&gt;two1">

<path fill="none" stroke="black" d="M128.12,-143.7C133.19,-135.81 139.3,-126.3 144.93,-117.55"/>
<polygon fill="black" stroke="black" points="147.72,-119.68 150.19,-109.38 141.83,-115.9 147.72,-119.68"/>
</g>
<!-- a -->
<g id="node3" class="node" pointer-events="visible" data-name="a">

<polygon fill="none" stroke="black" points="54,-36 0,-36 0,0 54,0 54,-36"/>
<text text-anchor="middle" x="27" y="-12" font-family="Times,serif" font-weight="bold" font-size="20.00">a</text>
</g>
<!-- mul&#45;&gt;a -->
<g id="edge3" class="edge" data-name="mul-&gt;a">

<path fill="none" stroke="black" d="M60.88,-71.7C55.81,-63.81 49.7,-54.3 44.07,-45.55"/>
<polygon fill="black" stroke="black" points="47.17,-43.9 38.81,-37.38 41.28,-47.68 47.17,-43.9"/>
</g>
<!-- two2 -->
<g id="node5" class="node" pointer-events="visible" data-name="two2">

<polygon fill="none" stroke="black" points="144,-36 90,-36 90,0 144,0 144,-36"/>
<text text-anchor="middle" x="117" y="-12" font-family="Times,serif" font-weight="bold" font-size="20.00">2</text>
</g>
<!-- mul&#45;&gt;two2 -->
<g id="edge4" class="edge" data-name="mul-&gt;two2">

<path fill="none" stroke="black" d="M83.12,-71.7C88.19,-63.81 94.3,-54.3 99.93,-45.55"/>
<polygon fill="black" stroke="black" points="102.72,-47.68 105.19,-37.38 96.83,-43.9 102.72,-47.68"/>
</g>
</g>
</svg>