<?xml version="1.0" standalone="no"?>
<svg xmlns="http://www.w3.org/2000/svg" xmlns:xlink="http://www.w3.org/1999/xlink" width="210pt" height="223pt" viewBox="0.00 0.00 210.00 223.00">
<g id="graph0" class="graph" transform="translate(43.46760861496261,175.78978210957774) scale(0.6597539553864471)" data-name="parent">

<polygon fill="white" stroke="none" points="-4,4 -4,-219 206,-219 206,4 -4,4"/>
<g id="clust1" class="cluster" data-name="cluster-53d8df00-35fb-477d-a4b4-f1b2578d5aea">

<path fill="navajowhite" stroke="black" stroke-dasharray="5,2" d="M124,-8C124,-8 182,-8 182,-8 188,-8 194,-14 194,-20 194,-20 194,-49 194,-49 194,-55 188,-61 182,-61 182,-61 124,-61 124,-61 118,-61 112,-55 112,-49 112,-49 112,-20 112,-20 112,-14 118,-8 124,-8"/>
</g>
<g id="clust2" class="cluster" data-name="cluster-4291ce1d-e101-4ca8-aae9-8678da5fb8cc">

<path fill="navajowhite" stroke="black" stroke-dasharray="5,2" d="M20,-8C20,-8 80,-8 80,-8 86,-8 92,-14 92,-20 92,-20 92,-49 92,-49 92,-55 86,-61 80,-61 80,-61 20,-61 20,-61 14,-61 8,-55 8,-49 8,-49 8,-20 8,-20 8,-14 14,-8 20,-8"/>
</g>
<g id="clust3" class="cluster" data-name="cluster-7bb28e8e-978a-4c58-a8d9-96037ac8bf7a">

<path fill="navajowhite" stroke="black" stroke-dasharray="5,2" d="M109,-81C109,-81 169,-81 169,-81 175,-81 181,-87 181,-93 181,-93 181,-122 181,-122 181,-128 175,-134 169,-134 169,-134 109,-134 109,-134 103,-134 97,-128 97,-122 97,-122 97,-93 97,-93 97,-87 103,-81 109,-81"/>
</g>
<g id="clust4" class="cluster" data-name="cluster-a7644fbe-caf2-4155-9bc3-b057ca040507">

<path fill="navajowhite" stroke="black" stroke-dasharray="5,2" d="M68,-154C68,-154 124,-154 124,-154 130,-154 136,-160 136,-166 136,-166 136,-195 136,-195 136,-201 130,-207 124,-207 124,-207 68,-207 68,-207 62,-207 56,-201 56,-195 56,-195 56,-166 56,-166 56,-160 62,-154 68,-154"/>
</g>
<!-- a -->
<g id="node1" class="node" pointer-events="visible" data-name="a">

<path fill="white" stroke="black" d="M131.56,-16.5C131.56,-16.5 174.44,-16.5 174.44,-16.5 180.44,-16.5 186.44,-22.5 186.44,-28.5 186.44,-28.5 186.44,-40.5 186.44,-40.5 186.44,-46.5 180.44,-52.5 174.44,-52.5 174.44,-52.5 131.56,-52.5 131.56,-52.5 125.56,-52.5 119.56,-46.5 119.56,-40.5 119.56,-40.5 119.56,-28.5 119.56,-28.5 119.56,-22.5 125.56,-16.5 131.56,-16.5"/>
<text text-anchor="middle" x="130.06" y="-28.5" font-family="Times,serif" font-weight="bold" font-size="20.00"> </text>
<polyline fill="none" stroke="black" points="140.56,-16.5 140.56,-52.5"/>
<text text-anchor="middle" x="153" y="-28.5" font-family="Times,serif" font-weight="bold" font-size="20.00">a</text>
<polyline fill="none" stroke="black" points="165.44,-16.5 165.44,-52.5"/>
<text text-anchor="middle" x="175.94" y="-28.5" font-family="Times,serif" font-weight="bold" font-size="20.00"> </text>
</g>
<!-- 2 -->
<g id="node2" class="node" pointer-events="visible" data-name="2">

<path fill="white" stroke="black" d="M28,-16.5C28,-16.5 72,-16.5 72,-16.5 78,-16.5 84,-22.5 84,-28.5 84,-28.5 84,-40.5 84,-40.5 84,-46.5 78,-52.5 72,-52.5 72,-52.5 28,-52.5 28,-52.5 22,-52.5 16,-46.5 16,-40.5 16,-40.5 16,-28.5 16,-28.5 16,-22.5 22,-16.5 28,-16.5"/>
<text text-anchor="middle" x="26.5" y="-28.5" font-family="Times,serif" font-weight="bold" font-size="20.00"> </text>
<polyline fill="none" stroke="black" points="37,-16.5 37,-52.5"/>
<text text-anchor="middle" x="50" y="-28.5" font-family="Times,serif" font-weight="bold" font-size="20.00">2</text>
<polyline fill="none" stroke="black" points="63,-16.5 63,-52.5"/>
<text text-anchor="middle" x="73.5" y="-28.5" font-family="Times,serif" font-weight="bold" font-size="20.00"> </text>
</g>
<!-- *2 -->
<g id="node3" class="node" pointer-events="visible" data-name="*2">

<path fill="white" stroke="black" d="M117,-89.5C117,-89.5 161,-89.5 161,-89.5 167,-89.5 173,-95.5 173,-101.5 173,-101.5 173,-113.5 173,-113.5 173,-119.5 167,-125.5 161,-125.5 161,-125.5 117,-125.5 117,-125.5 111,-125.5 105,-119.5 105,-113.5 105,-113.5 105,-101.5 105,-101.5 105,-95.5 111,-89.5 117,-89.5"/>
<text text-anchor="middle" x="115.5" y="-101.5" font-family="Times,serif" font-weight="bold" font-size="20.00"> </text>
<polyline fill="none" stroke="black" points="126,-89.5 126,-125.5"/>
<text text-anchor="middle" x="139" y="-101.5" font-family="Times,serif" font-weight="bold" font-size="20.00">*</text>
<polyline fill="none" stroke="black" points="152,-89.5 152,-125.5"/>
<text text-anchor="middle" x="162.5" y="-101.5" font-family="Times,serif" font-weight="bold" font-size="20.00"> </text>
</g>
<!-- *2&#45;&gt;a -->
<g id="edge3" class="edge" data-name="*2:20-&gt;a" data-comment="*2-&gt;a">

<path fill="none" stroke="black" d="M115,-88.5C115,-82.24 116.78,-76.2 119.56,-70.59"/>
<polygon fill="black" stroke="black" points="122.41,-72.63 124.69,-62.29 116.46,-68.95 122.41,-72.63"/>
</g>
<!-- *2&#45;&gt;2 -->
<g id="edge4" class="edge" data-name="*2:21-&gt;2" data-comment="*2-&gt;2">

<path fill="none" stroke="black" d="M163,-88.5C163,-59.17 129.55,-73.47 103,-61 100.1,-59.64 97.11,-58.22 94.1,-56.79"/>
<polygon fill="black" stroke="black" points="102.92,-59.98 93.13,-55.93 98.25,-65.2 102.92,-59.98"/>
</g>
<!-- /3 -->
<g id="node4" class="node" pointer-events="visible" data-name="/3">

<path fill="white" stroke="black" d="M76.22,-162.5C76.22,-162.5 115.78,-162.5 115.78,-162.5 121.78,-162.5 127.78,-168.5 127.78,-174.5 127.78,-174.5 127.78,-186.5 127.78,-186.5 127.78,-192.5 121.78,-198.5 115.78,-198.5 115.78,-198.5 76.22,-198.5 76.22,-198.5 70.22,-198.5 64.22,-192.5 64.22,-186.5 64.22,-186.5 64.22,-174.5 64.22,-174.5 64.22,-168.5 70.22,-162.5 76.22,-162.5"/>
<text text-anchor="middle" x="74.72" y="-174.5" font-family="Times,serif" font-weight="bold" font-size="20.00"> </text>
<polyline fill="none" stroke="black" points="85.22,-162.5 85.22,-198.5"/>
<text text-anchor="middle" x="96" y="-174.5" font-family="Times,serif" font-weight="bold" font-size="20.00">/</text>
<polyline fill="none" stroke="black" points="106.78,-162.5 106.78,-198.5"/>
<text text-anchor="middle" x="117.28" y="-174.5" font-family="Times,serif" font-weight="bold" font-size="20.00"> </text>
</g>
<!-- /3&#45;&gt;2 -->
<g id="edge2" class="edge" data-name="/3:31-&gt;2" data-comment="/3-&gt;2">

<path fill="none" stroke="black" d="M117,-161.5C117,-143.74 97.88,-148.76 88,-134 73.35,-112.13 63.18,-83.8 57.07,-63.14"/>
<polygon fill="black" stroke="black" points="64.25,-69.78 56.69,-62.36 57.97,-72.87 64.25,-69.78"/>
</g>
<!-- /3&#45;&gt;*2 -->
<g id="edge1" class="edge" data-name="/3:30-&gt;*2" data-comment="/3-&gt;*2">

<path fill="none" stroke="black" d="M75,-161.5C75,-147.5 84.2,-136.5 95.62,-128.23"/>
<polygon fill="black" stroke="black" points="89.95,-136.93 95.79,-128.1 85.71,-131.36 89.95,-136.93"/>
</g>
</g>
</svg>