<?xml version="1.0" standalone="no"?>
<svg xmlns="http://www.w3.org/2000/svg" xmlns:xlink="http://www.w3.org/1999/xlink" width="452pt" height="296pt" viewBox="0.00 0.00 452.00 296">
<g id="graph0" class="graph" transform="translate(4,292) scale(1)" data-name="parent">

<polygon fill="white" stroke="none" points="-4,4 -4,-292 448,-292 448,4 -4,4"/>
<g id="clust1" class="cluster" data-name="cluster-b1a66791-36d1-484a-8b4a-1ac3464e5f31">

<path fill="navajowhite" stroke="black" stroke-dasharray="5,2" d="M20,-154C20,-154 282,-154 282,-154 288,-154 294,-160 294,-166 294,-166 294,-195 294,-195 294,-201 288,-207 282,-207 282,-207 20,-207 20,-207 14,-207 8,-201 8,-195 8,-195 8,-166 8,-166 8,-160 14,-154 20,-154"/>
</g>
<g id="clust2" class="cluster" data-name="cluster-93f5d43a-d25f-4f8a-88a2-74f7f0c178c6">

<path fill="navajowhite" stroke="black" stroke-dasharray="5,2" d="M246,-8C246,-8 306,-8 306,-8 312,-8 318,-14 318,-20 318,-20 318,-49 318,-49 318,-55 312,-61 306,-61 306,-61 246,-61 246,-61 240,-61 234,-55 234,-49 234,-49 234,-20 234,-20 234,-14 240,-8 246,-8"/>
</g>
<g id="clust3" class="cluster" data-name="cluster-cd9118a3-4fbe-4a71-99ff-d3f75353cc00">

<path fill="navajowhite" stroke="black" stroke-dasharray="5,2" d="M248,-227C248,-227 424,-227 424,-227 430,-227 436,-233 436,-239 436,-239 436,-268 436,-268 436,-274 430,-280 424,-280 424,-280 248,-280 248,-280 242,-280 236,-274 236,-268 236,-268 236,-239 236,-239 236,-233 242,-227 248,-227"/>
</g>
<g id="clust4" class="cluster" data-name="cluster-3c3b9e22-6ffe-464f-9267-efd722e4a11d">

<path fill="navajowhite" stroke="black" stroke-dasharray="5,2" d="M144,-81C144,-81 304,-81 304,-81 310,-81 316,-87 316,-93 316,-93 316,-122 316,-122 316,-128 310,-134 304,-134 304,-134 144,-134 144,-134 138,-134 132,-128 132,-122 132,-122 132,-93 132,-93 132,-87 138,-81 144,-81"/>
</g>
<!-- *0 -->
<g id="node1" class="node" pointer-events="visible" data-name="*0">

<path fill="white" stroke="black" d="M130,-162.5C130,-162.5 174,-162.5 174,-162.5 180,-162.5 186,-168.5 186,-174.5 186,-174.5 186,-186.5 186,-186.5 186,-192.5 180,-198.5 174,-198.5 174,-198.5 130,-198.5 130,-198.5 124,-198.5 118,-192.5 118,-186.5 118,-186.5 118,-174.5 118,-174.5 118,-168.5 124,-162.5 130,-162.5"/>
<text text-anchor="middle" x="128.5" y="-174.5" font-family="Times,serif" font-weight="bold" font-size="20.00"> </text>
<polyline fill="none" stroke="black" points="139,-162.5 139,-198.5"/>
<text text-anchor="middle" x="152" y="-174.5" font-family="Times,serif" font-weight="bold" font-size="20.00">*</text>
<polyline fill="none" stroke="black" points="165,-162.5 165,-198.5"/>
<text text-anchor="middle" x="175.5" y="-174.5" font-family="Times,serif" font-weight="bold" font-size="20.00"> </text>
</g>
<!-- /6 -->
<g id="node7" class="node" pointer-events="visible" data-name="/6">

<path fill="white" stroke="black" d="M256.22,-89.5C256.22,-89.5 295.78,-89.5 295.78,-89.5 301.78,-89.5 307.78,-95.5 307.78,-101.5 307.78,-101.5 307.78,-113.5 307.78,-113.5 307.78,-119.5 301.78,-125.5 295.78,-125.5 295.78,-125.5 256.22,-125.5 256.22,-125.5 250.22,-125.5 244.22,-119.5 244.22,-113.5 244.22,-113.5 244.22,-101.5 244.22,-101.5 244.22,-95.5 250.22,-89.5 256.22,-89.5"/>
<text text-anchor="middle" x="254.72" y="-101.5" font-family="Times,serif" font-weight="bold" font-size="20.00"> </text>
<polyline fill="none" stroke="black" points="265.22,-89.5 265.22,-125.5"/>
<text text-anchor="middle" x="276" y="-101.5" font-family="Times,serif" font-weight="bold" font-size="20.00">/</text>
<polyline fill="none" stroke="black" points="286.78,-89.5 286.78,-125.5"/>
<text text-anchor="middle" x="297.28" y="-101.5" font-family="Times,serif" font-weight="bold" font-size="20.00"> </text>
</g>
<!-- *0&#45;&gt;/6 -->
<g id="edge9" class="edge" data-name="*0:01-&gt;/6" data-comment="*0-&gt;/6">

<path fill="none" stroke="black" d="M176,-161.5C176,-160.81 195.2,-150.55 216.77,-139.24"/>
<polygon fill="black" stroke="black" points="218.21,-142.44 225.45,-134.7 214.97,-136.23 218.21,-142.44"/>
</g>
<!-- 403a446b&#45;e24b&#45;4976&#45;81c6&#45;bc55983bec54 -->
<g id="node9" class="node" pointer-events="visible" data-name="403a446b-e24b-4976-81c6-bc55983bec54">

<ellipse fill="white" stroke="black" cx="30" cy="-107.5" rx="0" ry="0"/>
</g>
<!-- *0&#45;&gt;403a446b&#45;e24b&#45;4976&#45;81c6&#45;bc55983bec54 -->
<g id="edge7" class="edge" data-name="*0:00-&gt;403a446b-e24b-4976-81c6-bc55983bec54" data-comment="*0-&gt;403a446b-e24b-4976-81c6-bc55983bec54">

<path fill="none" stroke="black" d="M128,-161.5C128,-127.66 85.61,-152.07 57,-134 43.48,-125.46 30.82,-109.54 30.04,-108.55"/>
</g>
<!-- /1 -->
<g id="node2" class="node" pointer-events="visible" data-name="/1">

<path fill="white" stroke="black" d="M234.22,-162.5C234.22,-162.5 273.78,-162.5 273.78,-162.5 279.78,-162.5 285.78,-168.5 285.78,-174.5 285.78,-174.5 285.78,-186.5 285.78,-186.5 285.78,-192.5 279.78,-198.5 273.78,-198.5 273.78,-198.5 234.22,-198.5 234.22,-198.5 228.22,-198.5 222.22,-192.5 222.22,-186.5 222.22,-186.5 222.22,-174.5 222.22,-174.5 222.22,-168.5 228.22,-162.5 234.22,-162.5"/>
<text text-anchor="middle" x="232.72" y="-174.5" font-family="Times,serif" font-weight="bold" font-size="20.00"> </text>
<polyline fill="none" stroke="black" points="243.22,-162.5 243.22,-198.5"/>
<text text-anchor="middle" x="254" y="-174.5" font-family="Times,serif" font-weight="bold" font-size="20.00">/</text>
<polyline fill="none" stroke="black" points="264.78,-162.5 264.78,-198.5"/>
<text text-anchor="middle" x="275.28" y="-174.5" font-family="Times,serif" font-weight="bold" font-size="20.00"> </text>
</g>
<!-- 2 -->
<g id="node4" class="node" pointer-events="visible" data-name="2">

<path fill="white" stroke="black" d="M254,-16.5C254,-16.5 298,-16.5 298,-16.5 304,-16.5 310,-22.5 310,-28.5 310,-28.5 310,-40.5 310,-40.5 310,-46.5 304,-52.5 298,-52.5 298,-52.5 254,-52.5 254,-52.5 248,-52.5 242,-46.5 242,-40.5 242,-40.5 242,-28.5 242,-28.5 242,-22.5 248,-16.5 254,-16.5"/>
<text text-anchor="middle" x="252.5" y="-28.5" font-family="Times,serif" font-weight="bold" font-size="20.00"> </text>
<polyline fill="none" stroke="black" points="263,-16.5 263,-52.5"/>
<text text-anchor="middle" x="276" y="-28.5" font-family="Times,serif" font-weight="bold" font-size="20.00">2</text>
<polyline fill="none" stroke="black" points="289,-16.5 289,-52.5"/>
<text text-anchor="middle" x="299.5" y="-28.5" font-family="Times,serif" font-weight="bold" font-size="20.00"> </text>
</g>
<!-- /1&#45;&gt;2 -->
<g id="edge4" class="edge" data-name="/1:11-&gt;2" data-comment="/1-&gt;2">

<path fill="none" stroke="black" d="M275,-161.5C275,-92.85 167.01,-186.69 123,-134 107.9,-115.92 108.92,-99.88 123,-81 147.67,-47.93 195.4,-37.93 231.01,-35.36"/>
<polygon fill="black" stroke="black" points="223.39,-40.45 232.52,-35.06 222.02,-33.58 223.39,-40.45"/>
</g>
<!-- *4 -->
<g id="node5" class="node" pointer-events="visible" data-name="*4">

<path fill="white" stroke="black" d="M256,-235.5C256,-235.5 300,-235.5 300,-235.5 306,-235.5 312,-241.5 312,-247.5 312,-247.5 312,-259.5 312,-259.5 312,-265.5 306,-271.5 300,-271.5 300,-271.5 256,-271.5 256,-271.5 250,-271.5 244,-265.5 244,-259.5 244,-259.5 244,-247.5 244,-247.5 244,-241.5 250,-235.5 256,-235.5"/>
<text text-anchor="middle" x="254.5" y="-247.5" font-family="Times,serif" font-weight="bold" font-size="20.00"> </text>
<polyline fill="none" stroke="black" points="265,-235.5 265,-271.5"/>
<text text-anchor="middle" x="278" y="-247.5" font-family="Times,serif" font-weight="bold" font-size="20.00">*</text>
<polyline fill="none" stroke="black" points="291,-235.5 291,-271.5"/>
<text text-anchor="middle" x="301.5" y="-247.5" font-family="Times,serif" font-weight="bold" font-size="20.00"> </text>
</g>
<!-- /1&#45;&gt;*4 -->
<g id="edge3" class="edge" data-name="/1:10-&gt;*4" data-comment="/1-&gt;*4">

<path fill="none" stroke="black" d="M233,-199.5C233,-206.11 235.06,-212.31 238.29,-217.98"/>
<polygon fill="black" stroke="black" points="235.17,-219.64 243.81,-225.77 240.88,-215.58 235.17,-219.64"/>
</g>
<!-- a -->
<g id="node3" class="node" pointer-events="visible" data-name="a">

<path fill="white" stroke="black" d="M27.56,-162.5C27.56,-162.5 70.44,-162.5 70.44,-162.5 76.44,-162.5 82.44,-168.5 82.44,-174.5 82.44,-174.5 82.44,-186.5 82.44,-186.5 82.44,-192.5 76.44,-198.5 70.44,-198.5 70.44,-198.5 27.56,-198.5 27.56,-198.5 21.56,-198.5 15.56,-192.5 15.56,-186.5 15.56,-186.5 15.56,-174.5 15.56,-174.5 15.56,-168.5 21.56,-162.5 27.56,-162.5"/>
<text text-anchor="middle" x="26.06" y="-174.5" font-family="Times,serif" font-weight="bold" font-size="20.00"> </text>
<polyline fill="none" stroke="black" points="36.56,-162.5 36.56,-198.5"/>
<text text-anchor="middle" x="49" y="-174.5" font-family="Times,serif" font-weight="bold" font-size="20.00">a</text>
<polyline fill="none" stroke="black" points="61.44,-162.5 61.44,-198.5"/>
<text text-anchor="middle" x="71.94" y="-174.5" font-family="Times,serif" font-weight="bold" font-size="20.00"> </text>
</g>
<!-- *4&#45;&gt;/1 -->
<g id="edge1" class="edge" data-name="*4:40-&gt;/1" data-comment="*4-&gt;/1">

<path fill="none" stroke="black" d="M254,-234.5C254,-226.43 254,-217.68 254,-209.65"/>
<polygon fill="black" stroke="black" points="257.5,-218.51 254,-208.51 250.5,-218.51 257.5,-218.51"/>
</g>
<!-- *4&#45;&gt;2 -->
<g id="edge2" class="edge" data-name="*4:41-&gt;2" data-comment="*4-&gt;2">

<path fill="none" stroke="black" d="M302,-234.5C302,-165.52 352.57,-144.23 325,-81 323.24,-76.96 320.92,-73.11 318.25,-69.5"/>
<polygon fill="black" stroke="black" points="321.13,-67.49 311.98,-62.15 315.81,-72.03 321.13,-67.49"/>
</g>
<!-- &lt;&lt;5 -->
<g id="node6" class="node" pointer-events="visible" data-name="&lt;&lt;5">

<path fill="white" stroke="black" d="M359.72,-235.5C359.72,-235.5 416.28,-235.5 416.28,-235.5 422.28,-235.5 428.28,-241.5 428.28,-247.5 428.28,-247.5 428.28,-259.5 428.28,-259.5 428.28,-265.5 422.28,-271.5 416.28,-271.5 416.28,-271.5 359.72,-271.5 359.72,-271.5 353.72,-271.5 347.72,-265.5 347.72,-259.5 347.72,-259.5 347.72,-247.5 347.72,-247.5 347.72,-241.5 353.72,-235.5 359.72,-235.5"/>
<text text-anchor="middle" x="358.22" y="-247.5" font-family="Times,serif" font-weight="bold" font-size="20.00"> </text>
<polyline fill="none" stroke="black" points="368.72,-235.5 368.72,-271.5"/>
<text text-anchor="middle" x="388" y="-247.5" font-family="Times,serif" font-weight="bold" font-size="20.00">&lt;&lt;</text>
<polyline fill="none" stroke="black" points="407.28,-235.5 407.28,-271.5"/>
<text text-anchor="middle" x="417.78" y="-247.5" font-family="Times,serif" font-weight="bold" font-size="20.00"> </text>
</g>
<!-- &lt;&lt;5&#45;&gt;/1 -->
<g id="edge5" class="edge" data-name="&lt;&lt;5:50-&gt;/1" data-comment="&lt;&lt;5-&gt;/1">

<path fill="none" stroke="black" d="M358,-234.5C358,-205.52 325.54,-192.38 296.89,-186.42"/>
<polygon fill="black" stroke="black" points="306.02,-185.91 295.43,-185.91 303.71,-192.52 306.02,-185.91"/>
</g>
<!-- &lt;&lt;5&#45;&gt;/6 -->
<g id="edge6" class="edge" data-name="&lt;&lt;5:51-&gt;/6" data-comment="&lt;&lt;5-&gt;/6">

<path fill="none" stroke="black" d="M418,-234.5C418,-180.53 359.9,-144.05 318.03,-124.77"/>
<polygon fill="black" stroke="black" points="327.15,-127.65 317.18,-124.08 322.75,-133.09 327.15,-127.65"/>
</g>
<!-- /6&#45;&gt;2 -->
<g id="edge10" class="edge" data-name="/6:60-&gt;2" data-comment="/6-&gt;2">

<path fill="none" stroke="black" d="M255,-88.5C255,-79.79 257.48,-70.81 260.74,-62.76"/>
<polygon fill="black" stroke="black" points="256.84,-71.62 261.43,-62.07 251.89,-66.68 256.84,-71.62"/>
</g>
<!-- /6&#45;&gt;2 -->
<g id="edge11" class="edge" data-name="/6:61-&gt;2" data-comment="/6-&gt;2">

<path fill="none" stroke="black" d="M297,-88.5C297,-79.79 294.52,-70.81 291.26,-62.76"/>
<polygon fill="black" stroke="black" points="300.11,-66.68 290.57,-62.07 295.16,-71.62 300.11,-66.68"/>
</g>
<!-- 1 -->
<g id="node8" class="node" pointer-events="visible" data-name="1">

<path fill="white" stroke="black" d="M152,-89.5C152,-89.5 196,-89.5 196,-89.5 202,-89.5 208,-95.5 208,-101.5 208,-101.5 208,-113.5 208,-113.5 208,-119.5 202,-125.5 196,-125.5 196,-125.5 152,-125.5 152,-125.5 146,-125.5 140,-119.5 140,-113.5 140,-113.5 140,-101.5 140,-101.5 140,-95.5 146,-89.5 152,-89.5"/>
<text text-anchor="middle" x="150.5" y="-101.5" font-family="Times,serif" font-weight="bold" font-size="20.00"> </text>
<polyline fill="none" stroke="black" points="161,-89.5 161,-125.5"/>
<text text-anchor="middle" x="174" y="-101.5" font-family="Times,serif" font-weight="bold" font-size="20.00">1</text>
<polyline fill="none" stroke="black" points="187,-89.5 187,-125.5"/>
<text text-anchor="middle" x="197.5" y="-101.5" font-family="Times,serif" font-weight="bold" font-size="20.00"> </text>
</g>
<!-- 403a446b&#45;e24b&#45;4976&#45;81c6&#45;bc55983bec54&#45;&gt;a -->
<g id="edge8" class="edge" data-name="403a446b-e24b-4976-81c6-bc55983bec54-&gt;a">

<path fill="none" stroke="black" d="M30.03,-108.6C30.46,-110.23 36.42,-132.5 41.55,-151.65"/>
<polygon fill="black" stroke="black" points="34.94,-144.64 41.93,-152.6 41.42,-142.01 34.94,-144.64"/>
</g>
</g>
</svg>